<?xml version="1.0" encoding="utf-8"?>
<!-- Generator: Adobe Illustrator 18.0.0, SVG Export Plug-In . SVG Version: 6.00 Build 0)  -->
<!DOCTYPE svg PUBLIC "-//W3C//DTD SVG 1.1//EN" "http://www.w3.org/Graphics/SVG/1.1/DTD/svg11.dtd">
<svg version="1.1" id="Layer_1" xmlns="http://www.w3.org/2000/svg" xmlns:xlink="http://www.w3.org/1999/xlink" x="0px" y="0px"
	 viewBox="0 0 288 336" enable-background="new 0 0 288 336" xml:space="preserve">
<rect x="0" y="0" width="288" height="336"/>
<g>
	<g>
		<path fill="#555555" d="M140.3,204.2v1.9h1.9v1.9v9.5h-1.9v3.8h1.9v11.4v1.9h-1.9v1.9h-9.5v-1.9h-1.9v-5.7h3.8v3.8h5.7v-11.4h-5.7
			v-3.8h5.7V208h-5.7v3.8h-3.8v-5.7h1.9v-1.9H140.3z"/>
		<path fill="#555555" d="M147.7,204.2h7.6v32.2h-3.8V208h-3.8V204.2z"/>
	</g>
</g>
<g>
	<path fill="#FF0000" d="M156.7,99.1l-11.4-11.4h-2v15.2l-9.2-9.2l-2.8,2.8l11.2,11.2l-11.2,11.2l2.8,2.8l9.2-9.2v15.2h2l11.4-11.4
		l-8.6-8.6L156.7,99.1z M147.3,95.3l3.8,3.8l-3.8,3.8V95.3z M151,116.2l-3.8,3.8v-7.5L151,116.2z"/>
</g>
<g>
	<defs>
		<line id="SVGID_1_" x1="144" y1="167.5" x2="88.8" y2="112.3"/>
	</defs>
	<clipPath id="SVGID_2_">
		<use xlink:href="#SVGID_1_"  overflow="visible"/>
	</clipPath>
	<path clip-path="url(#SVGID_2_)" fill="#FFFFFF" d="M88.8,112.3v55.2V112.3z"/>
	<rect x="88.8" y="112.3" clip-path="url(#SVGID_2_)" fill="#FFFFFF" width="0.2" height="55.2"/>
	<rect x="89.1" y="112.3" clip-path="url(#SVGID_2_)" fill="#FEFEFE" width="0.2" height="55.2"/>
	<rect x="89.3" y="112.3" clip-path="url(#SVGID_2_)" fill="#FDFDFD" width="0.2" height="55.2"/>
	<rect x="89.6" y="112.3" clip-path="url(#SVGID_2_)" fill="#FCFCFC" width="0.2" height="55.2"/>
	<rect x="89.8" y="112.3" clip-path="url(#SVGID_2_)" fill="#FBFBFB" width="0.2" height="55.2"/>
	<rect x="90.1" y="112.3" clip-path="url(#SVGID_2_)" fill="#FAFAFA" width="0.2" height="55.2"/>
	<rect x="90.3" y="112.3" clip-path="url(#SVGID_2_)" fill="#F9F9F9" width="0.2" height="55.2"/>
	<rect x="90.6" y="112.3" clip-path="url(#SVGID_2_)" fill="#F8F8F8" width="0.2" height="55.2"/>
	<rect x="90.8" y="112.3" clip-path="url(#SVGID_2_)" fill="#F7F7F7" width="0.2" height="55.2"/>
	<rect x="91.1" y="112.3" clip-path="url(#SVGID_2_)" fill="#F6F6F6" width="0.2" height="55.2"/>
	<rect x="91.3" y="112.3" clip-path="url(#SVGID_2_)" fill="#F5F5F5" width="0.2" height="55.2"/>
	<rect x="91.6" y="112.3" clip-path="url(#SVGID_2_)" fill="#F4F4F4" width="0.2" height="55.2"/>
	<rect x="91.8" y="112.3" clip-path="url(#SVGID_2_)" fill="#F3F3F3" width="0.2" height="55.2"/>
	<rect x="92" y="112.3" clip-path="url(#SVGID_2_)" fill="#F2F2F2" width="0.2" height="55.2"/>
	<rect x="92.3" y="112.3" clip-path="url(#SVGID_2_)" fill="#F1F1F1" width="0.2" height="55.2"/>
	<rect x="92.5" y="112.3" clip-path="url(#SVGID_2_)" fill="#F0F0F0" width="0.2" height="55.2"/>
	<rect x="92.8" y="112.3" clip-path="url(#SVGID_2_)" fill="#EFEFEF" width="0.2" height="55.2"/>
	<rect x="93" y="112.3" clip-path="url(#SVGID_2_)" fill="#EEEEEE" width="0.2" height="55.2"/>
	<rect x="93.3" y="112.3" clip-path="url(#SVGID_2_)" fill="#EDEDED" width="0.2" height="55.2"/>
	<rect x="93.5" y="112.3" clip-path="url(#SVGID_2_)" fill="#ECECEC" width="0.2" height="55.2"/>
	<rect x="93.8" y="112.3" clip-path="url(#SVGID_2_)" fill="#EBEBEB" width="0.2" height="55.2"/>
	<rect x="94" y="112.3" clip-path="url(#SVGID_2_)" fill="#EAEAEA" width="0.2" height="55.2"/>
	<rect x="94.3" y="112.3" clip-path="url(#SVGID_2_)" fill="#E9E9E9" width="0.2" height="55.2"/>
	<rect x="94.5" y="112.3" clip-path="url(#SVGID_2_)" fill="#E8E8E8" width="0.2" height="55.2"/>
	<rect x="94.8" y="112.3" clip-path="url(#SVGID_2_)" fill="#E7E7E7" width="0.2" height="55.2"/>
	<rect x="95" y="112.3" clip-path="url(#SVGID_2_)" fill="#E6E6E6" width="0.2" height="55.2"/>
	<rect x="95.2" y="112.3" clip-path="url(#SVGID_2_)" fill="#E5E5E5" width="0.2" height="55.2"/>
	<rect x="95.5" y="112.3" clip-path="url(#SVGID_2_)" fill="#E4E4E4" width="0.2" height="55.2"/>
	<rect x="95.7" y="112.3" clip-path="url(#SVGID_2_)" fill="#E3E3E3" width="0.2" height="55.2"/>
	<rect x="96" y="112.3" clip-path="url(#SVGID_2_)" fill="#E2E2E2" width="0.2" height="55.2"/>
	<rect x="96.2" y="112.3" clip-path="url(#SVGID_2_)" fill="#E1E1E1" width="0.2" height="55.2"/>
	<rect x="96.5" y="112.3" clip-path="url(#SVGID_2_)" fill="#E0E0E0" width="0.2" height="55.2"/>
	<rect x="96.7" y="112.3" clip-path="url(#SVGID_2_)" fill="#DFDFDF" width="0.2" height="55.2"/>
	<rect x="97" y="112.3" clip-path="url(#SVGID_2_)" fill="#DEDEDE" width="0.2" height="55.2"/>
	<rect x="97.2" y="112.3" clip-path="url(#SVGID_2_)" fill="#DDDDDD" width="0.2" height="55.2"/>
	<rect x="97.5" y="112.3" clip-path="url(#SVGID_2_)" fill="#DCDCDC" width="0.2" height="55.2"/>
	<rect x="97.7" y="112.3" clip-path="url(#SVGID_2_)" fill="#DBDBDB" width="0.2" height="55.2"/>
	<rect x="98" y="112.3" clip-path="url(#SVGID_2_)" fill="#DADADA" width="0.2" height="55.2"/>
	<rect x="98.2" y="112.3" clip-path="url(#SVGID_2_)" fill="#DAD9D9" width="0.2" height="55.2"/>
	<rect x="98.4" y="112.3" clip-path="url(#SVGID_2_)" fill="#D9D8D8" width="0.2" height="55.2"/>
	<rect x="98.7" y="112.3" clip-path="url(#SVGID_2_)" fill="#D8D7D7" width="0.2" height="55.2"/>
	<rect x="98.9" y="112.3" clip-path="url(#SVGID_2_)" fill="#D7D6D6" width="0.2" height="55.2"/>
	<rect x="99.2" y="112.3" clip-path="url(#SVGID_2_)" fill="#D6D5D5" width="0.2" height="55.2"/>
	<rect x="99.4" y="112.3" clip-path="url(#SVGID_2_)" fill="#D5D4D4" width="0.2" height="55.2"/>
	<rect x="99.7" y="112.3" clip-path="url(#SVGID_2_)" fill="#D4D3D3" width="0.2" height="55.2"/>
	<rect x="99.9" y="112.3" clip-path="url(#SVGID_2_)" fill="#D3D2D2" width="0.2" height="55.2"/>
	<rect x="100.2" y="112.3" clip-path="url(#SVGID_2_)" fill="#D2D1D1" width="0.2" height="55.2"/>
	<rect x="100.4" y="112.3" clip-path="url(#SVGID_2_)" fill="#D1D0D0" width="0.2" height="55.2"/>
	<rect x="100.7" y="112.3" clip-path="url(#SVGID_2_)" fill="#D0CFCF" width="0.2" height="55.2"/>
	<rect x="100.9" y="112.3" clip-path="url(#SVGID_2_)" fill="#CFCECE" width="0.2" height="55.2"/>
	<rect x="101.2" y="112.3" clip-path="url(#SVGID_2_)" fill="#CECDCD" width="0.2" height="55.2"/>
	<rect x="101.4" y="112.3" clip-path="url(#SVGID_2_)" fill="#CDCCCC" width="0.2" height="55.2"/>
	<rect x="101.6" y="112.3" clip-path="url(#SVGID_2_)" fill="#CCCBCB" width="0.2" height="55.2"/>
	<rect x="101.9" y="112.3" clip-path="url(#SVGID_2_)" fill="#CBCACA" width="0.2" height="55.2"/>
	<rect x="102.1" y="112.3" clip-path="url(#SVGID_2_)" fill="#CAC9C9" width="0.2" height="55.2"/>
	<rect x="102.4" y="112.3" clip-path="url(#SVGID_2_)" fill="#C9C8C8" width="0.2" height="55.2"/>
	<rect x="102.6" y="112.3" clip-path="url(#SVGID_2_)" fill="#C8C7C7" width="0.2" height="55.2"/>
	<rect x="102.9" y="112.3" clip-path="url(#SVGID_2_)" fill="#C7C6C6" width="0.2" height="55.2"/>
	<rect x="103.1" y="112.3" clip-path="url(#SVGID_2_)" fill="#C6C5C5" width="0.2" height="55.2"/>
	<rect x="103.4" y="112.3" clip-path="url(#SVGID_2_)" fill="#C5C4C4" width="0.2" height="55.2"/>
	<rect x="103.6" y="112.3" clip-path="url(#SVGID_2_)" fill="#C4C3C3" width="0.2" height="55.2"/>
	<rect x="103.9" y="112.3" clip-path="url(#SVGID_2_)" fill="#C3C2C2" width="0.2" height="55.2"/>
	<rect x="104.1" y="112.3" clip-path="url(#SVGID_2_)" fill="#C2C1C1" width="0.2" height="55.2"/>
	<rect x="104.4" y="112.3" clip-path="url(#SVGID_2_)" fill="#C1C0C0" width="0.2" height="55.2"/>
	<rect x="104.6" y="112.3" clip-path="url(#SVGID_2_)" fill="#C0BFBF" width="0.2" height="55.2"/>
	<rect x="104.9" y="112.3" clip-path="url(#SVGID_2_)" fill="#BFBEBE" width="0.2" height="55.2"/>
	<rect x="105.1" y="112.3" clip-path="url(#SVGID_2_)" fill="#BEBDBD" width="0.2" height="55.2"/>
	<rect x="105.3" y="112.3" clip-path="url(#SVGID_2_)" fill="#BDBCBC" width="0.2" height="55.2"/>
	<rect x="105.6" y="112.3" clip-path="url(#SVGID_2_)" fill="#BCBBBB" width="0.2" height="55.2"/>
	<rect x="105.8" y="112.3" clip-path="url(#SVGID_2_)" fill="#BBBABA" width="0.2" height="55.2"/>
	<rect x="106.1" y="112.3" clip-path="url(#SVGID_2_)" fill="#BAB9B9" width="0.2" height="55.2"/>
	<rect x="106.3" y="112.3" clip-path="url(#SVGID_2_)" fill="#B9B8B8" width="0.2" height="55.2"/>
	<rect x="106.6" y="112.3" clip-path="url(#SVGID_2_)" fill="#B8B7B7" width="0.2" height="55.2"/>
	<rect x="106.8" y="112.3" clip-path="url(#SVGID_2_)" fill="#B7B6B6" width="0.2" height="55.2"/>
	<rect x="107.1" y="112.3" clip-path="url(#SVGID_2_)" fill="#B6B5B5" width="0.2" height="55.2"/>
	<rect x="107.3" y="112.3" clip-path="url(#SVGID_2_)" fill="#B5B4B4" width="0.2" height="55.2"/>
	<rect x="107.6" y="112.3" clip-path="url(#SVGID_2_)" fill="#B4B3B3" width="0.2" height="55.2"/>
	<rect x="107.8" y="112.3" clip-path="url(#SVGID_2_)" fill="#B3B2B2" width="0.2" height="55.2"/>
	<rect x="108.1" y="112.3" clip-path="url(#SVGID_2_)" fill="#B2B1B1" width="0.2" height="55.2"/>
	<rect x="108.3" y="112.3" clip-path="url(#SVGID_2_)" fill="#B1B0B0" width="0.2" height="55.2"/>
	<rect x="108.5" y="112.3" clip-path="url(#SVGID_2_)" fill="#B0AFAF" width="0.2" height="55.2"/>
	<rect x="108.8" y="112.3" clip-path="url(#SVGID_2_)" fill="#AFAEAE" width="0.2" height="55.2"/>
	<rect x="109" y="112.3" clip-path="url(#SVGID_2_)" fill="#AEADAD" width="0.2" height="55.2"/>
	<rect x="109.3" y="112.3" clip-path="url(#SVGID_2_)" fill="#ADACAC" width="0.2" height="55.2"/>
	<rect x="109.5" y="112.3" clip-path="url(#SVGID_2_)" fill="#ACABAB" width="0.2" height="55.2"/>
	<rect x="109.8" y="112.3" clip-path="url(#SVGID_2_)" fill="#ABAAAA" width="0.2" height="55.2"/>
	<rect x="110" y="112.3" clip-path="url(#SVGID_2_)" fill="#AAA9A9" width="0.2" height="55.2"/>
	<rect x="110.3" y="112.3" clip-path="url(#SVGID_2_)" fill="#A9A8A8" width="0.2" height="55.2"/>
	<rect x="110.5" y="112.3" clip-path="url(#SVGID_2_)" fill="#A8A7A7" width="0.2" height="55.2"/>
	<rect x="110.8" y="112.3" clip-path="url(#SVGID_2_)" fill="#A7A6A6" width="0.2" height="55.2"/>
	<rect x="111" y="112.3" clip-path="url(#SVGID_2_)" fill="#A6A5A5" width="0.2" height="55.2"/>
	<rect x="111.3" y="112.3" clip-path="url(#SVGID_2_)" fill="#A5A4A4" width="0.2" height="55.2"/>
	<rect x="111.5" y="112.3" clip-path="url(#SVGID_2_)" fill="#A4A3A3" width="0.2" height="55.2"/>
	<rect x="111.7" y="112.3" clip-path="url(#SVGID_2_)" fill="#A3A2A2" width="0.2" height="55.2"/>
	<rect x="112" y="112.3" clip-path="url(#SVGID_2_)" fill="#A2A1A1" width="0.2" height="55.2"/>
	<rect x="112.2" y="112.3" clip-path="url(#SVGID_2_)" fill="#A1A0A0" width="0.2" height="55.2"/>
	<rect x="112.5" y="112.3" clip-path="url(#SVGID_2_)" fill="#A09F9F" width="0.2" height="55.2"/>
	<rect x="112.7" y="112.3" clip-path="url(#SVGID_2_)" fill="#9F9E9E" width="0.2" height="55.2"/>
	<rect x="113" y="112.3" clip-path="url(#SVGID_2_)" fill="#9E9D9D" width="0.2" height="55.2"/>
	<rect x="113.2" y="112.3" clip-path="url(#SVGID_2_)" fill="#9D9C9C" width="0.2" height="55.2"/>
	<rect x="113.5" y="112.3" clip-path="url(#SVGID_2_)" fill="#9C9B9B" width="0.2" height="55.2"/>
	<rect x="113.7" y="112.3" clip-path="url(#SVGID_2_)" fill="#9B9A9A" width="0.2" height="55.2"/>
	<rect x="114" y="112.3" clip-path="url(#SVGID_2_)" fill="#9A9999" width="0.2" height="55.2"/>
	<rect x="114.2" y="112.3" clip-path="url(#SVGID_2_)" fill="#999898" width="0.2" height="55.2"/>
	<rect x="114.5" y="112.3" clip-path="url(#SVGID_2_)" fill="#989797" width="0.2" height="55.2"/>
	<rect x="114.7" y="112.3" clip-path="url(#SVGID_2_)" fill="#979696" width="0.2" height="55.2"/>
	<rect x="114.9" y="112.3" clip-path="url(#SVGID_2_)" fill="#969595" width="0.2" height="55.2"/>
	<rect x="115.2" y="112.3" clip-path="url(#SVGID_2_)" fill="#959494" width="0.2" height="55.2"/>
	<rect x="115.4" y="112.3" clip-path="url(#SVGID_2_)" fill="#949393" width="0.2" height="55.2"/>
	<rect x="115.7" y="112.3" clip-path="url(#SVGID_2_)" fill="#939292" width="0.2" height="55.2"/>
	<rect x="115.9" y="112.3" clip-path="url(#SVGID_2_)" fill="#929191" width="0.2" height="55.2"/>
	<rect x="116.2" y="112.3" clip-path="url(#SVGID_2_)" fill="#919090" width="0.2" height="55.2"/>
	<rect x="116.4" y="112.3" clip-path="url(#SVGID_2_)" fill="#918E8F" width="0.2" height="55.2"/>
	<rect x="116.7" y="112.3" clip-path="url(#SVGID_2_)" fill="#908D8E" width="0.2" height="55.2"/>
	<rect x="116.9" y="112.3" clip-path="url(#SVGID_2_)" fill="#8F8C8D" width="0.2" height="55.2"/>
	<rect x="117.2" y="112.3" clip-path="url(#SVGID_2_)" fill="#8E8B8C" width="0.2" height="55.2"/>
	<rect x="117.4" y="112.3" clip-path="url(#SVGID_2_)" fill="#8D8A8B" width="0.2" height="55.2"/>
	<rect x="117.7" y="112.3" clip-path="url(#SVGID_2_)" fill="#8C898A" width="0.2" height="55.2"/>
	<rect x="117.9" y="112.3" clip-path="url(#SVGID_2_)" fill="#8B8889" width="0.2" height="55.2"/>
	<rect x="118.1" y="112.3" clip-path="url(#SVGID_2_)" fill="#8A8788" width="0.2" height="55.2"/>
	<rect x="118.4" y="112.3" clip-path="url(#SVGID_2_)" fill="#898687" width="0.2" height="55.2"/>
	<rect x="118.6" y="112.3" clip-path="url(#SVGID_2_)" fill="#888586" width="0.2" height="55.2"/>
	<rect x="118.9" y="112.3" clip-path="url(#SVGID_2_)" fill="#878485" width="0.2" height="55.2"/>
	<rect x="119.1" y="112.3" clip-path="url(#SVGID_2_)" fill="#868384" width="0.2" height="55.2"/>
	<rect x="119.4" y="112.3" clip-path="url(#SVGID_2_)" fill="#858283" width="0.2" height="55.2"/>
	<rect x="119.6" y="112.3" clip-path="url(#SVGID_2_)" fill="#848182" width="0.2" height="55.2"/>
	<rect x="119.9" y="112.3" clip-path="url(#SVGID_2_)" fill="#838081" width="0.2" height="55.2"/>
	<rect x="120.1" y="112.3" clip-path="url(#SVGID_2_)" fill="#827F80" width="0.2" height="55.2"/>
	<rect x="120.4" y="112.3" clip-path="url(#SVGID_2_)" fill="#817E7F" width="0.2" height="55.2"/>
	<rect x="120.6" y="112.3" clip-path="url(#SVGID_2_)" fill="#807D7E" width="0.2" height="55.2"/>
	<rect x="120.9" y="112.3" clip-path="url(#SVGID_2_)" fill="#7F7C7D" width="0.2" height="55.2"/>
	<rect x="121.1" y="112.3" clip-path="url(#SVGID_2_)" fill="#7E7B7C" width="0.2" height="55.2"/>
	<rect x="121.3" y="112.3" clip-path="url(#SVGID_2_)" fill="#7D7A7B" width="0.2" height="55.2"/>
	<rect x="121.6" y="112.3" clip-path="url(#SVGID_2_)" fill="#7C797A" width="0.2" height="55.2"/>
	<rect x="121.8" y="112.3" clip-path="url(#SVGID_2_)" fill="#7B7879" width="0.2" height="55.2"/>
	<rect x="122.1" y="112.3" clip-path="url(#SVGID_2_)" fill="#7A7778" width="0.2" height="55.2"/>
	<rect x="122.3" y="112.3" clip-path="url(#SVGID_2_)" fill="#797677" width="0.2" height="55.2"/>
	<rect x="122.6" y="112.3" clip-path="url(#SVGID_2_)" fill="#787576" width="0.2" height="55.2"/>
	<rect x="122.8" y="112.3" clip-path="url(#SVGID_2_)" fill="#777475" width="0.2" height="55.2"/>
	<rect x="123.1" y="112.3" clip-path="url(#SVGID_2_)" fill="#767374" width="0.2" height="55.2"/>
	<rect x="123.3" y="112.3" clip-path="url(#SVGID_2_)" fill="#757273" width="0.2" height="55.2"/>
	<rect x="123.6" y="112.3" clip-path="url(#SVGID_2_)" fill="#747172" width="0.2" height="55.2"/>
	<rect x="123.8" y="112.3" clip-path="url(#SVGID_2_)" fill="#737071" width="0.2" height="55.2"/>
	<rect x="124.1" y="112.3" clip-path="url(#SVGID_2_)" fill="#726F70" width="0.2" height="55.2"/>
	<rect x="124.3" y="112.3" clip-path="url(#SVGID_2_)" fill="#716E6F" width="0.2" height="55.2"/>
	<rect x="124.5" y="112.3" clip-path="url(#SVGID_2_)" fill="#706D6E" width="0.2" height="55.2"/>
	<rect x="124.8" y="112.3" clip-path="url(#SVGID_2_)" fill="#6F6C6D" width="0.2" height="55.2"/>
	<rect x="125" y="112.3" clip-path="url(#SVGID_2_)" fill="#6E6B6C" width="0.2" height="55.2"/>
	<rect x="125.3" y="112.3" clip-path="url(#SVGID_2_)" fill="#6D6A6B" width="0.2" height="55.2"/>
	<rect x="125.5" y="112.3" clip-path="url(#SVGID_2_)" fill="#6C696A" width="0.2" height="55.2"/>
	<rect x="125.8" y="112.3" clip-path="url(#SVGID_2_)" fill="#6B6869" width="0.2" height="55.2"/>
	<rect x="126" y="112.3" clip-path="url(#SVGID_2_)" fill="#6A6768" width="0.2" height="55.2"/>
	<rect x="126.3" y="112.3" clip-path="url(#SVGID_2_)" fill="#696667" width="0.2" height="55.2"/>
	<rect x="126.5" y="112.3" clip-path="url(#SVGID_2_)" fill="#686566" width="0.2" height="55.2"/>
	<rect x="126.8" y="112.3" clip-path="url(#SVGID_2_)" fill="#676465" width="0.2" height="55.2"/>
	<rect x="127" y="112.3" clip-path="url(#SVGID_2_)" fill="#666364" width="0.2" height="55.2"/>
	<rect x="127.3" y="112.3" clip-path="url(#SVGID_2_)" fill="#656263" width="0.2" height="55.2"/>
	<rect x="127.5" y="112.3" clip-path="url(#SVGID_2_)" fill="#646162" width="0.2" height="55.2"/>
	<rect x="127.7" y="112.3" clip-path="url(#SVGID_2_)" fill="#636061" width="0.2" height="55.2"/>
	<rect x="128" y="112.3" clip-path="url(#SVGID_2_)" fill="#625F60" width="0.2" height="55.2"/>
	<rect x="128.2" y="112.3" clip-path="url(#SVGID_2_)" fill="#615E5F" width="0.2" height="55.2"/>
	<rect x="128.5" y="112.3" clip-path="url(#SVGID_2_)" fill="#605D5E" width="0.2" height="55.2"/>
	<rect x="128.7" y="112.3" clip-path="url(#SVGID_2_)" fill="#5F5C5D" width="0.2" height="55.2"/>
	<rect x="129" y="112.3" clip-path="url(#SVGID_2_)" fill="#5E5B5C" width="0.2" height="55.2"/>
	<rect x="129.2" y="112.3" clip-path="url(#SVGID_2_)" fill="#5D5A5B" width="0.2" height="55.2"/>
	<rect x="129.5" y="112.3" clip-path="url(#SVGID_2_)" fill="#5C595A" width="0.2" height="55.2"/>
	<rect x="129.7" y="112.3" clip-path="url(#SVGID_2_)" fill="#5B5859" width="0.2" height="55.2"/>
	<rect x="130" y="112.3" clip-path="url(#SVGID_2_)" fill="#5A5758" width="0.2" height="55.2"/>
	<rect x="130.2" y="112.3" clip-path="url(#SVGID_2_)" fill="#595657" width="0.2" height="55.2"/>
	<rect x="130.5" y="112.3" clip-path="url(#SVGID_2_)" fill="#585556" width="0.2" height="55.2"/>
	<rect x="130.7" y="112.3" clip-path="url(#SVGID_2_)" fill="#575455" width="0.2" height="55.2"/>
	<rect x="131" y="112.3" clip-path="url(#SVGID_2_)" fill="#565354" width="0.2" height="55.2"/>
	<rect x="131.2" y="112.3" clip-path="url(#SVGID_2_)" fill="#555253" width="0.2" height="55.2"/>
	<rect x="131.4" y="112.3" clip-path="url(#SVGID_2_)" fill="#545152" width="0.2" height="55.2"/>
	<rect x="131.7" y="112.3" clip-path="url(#SVGID_2_)" fill="#535051" width="0.2" height="55.2"/>
	<rect x="131.9" y="112.3" clip-path="url(#SVGID_2_)" fill="#524F50" width="0.2" height="55.2"/>
	<rect x="132.2" y="112.3" clip-path="url(#SVGID_2_)" fill="#514E4F" width="0.2" height="55.2"/>
	<rect x="132.4" y="112.3" clip-path="url(#SVGID_2_)" fill="#504D4E" width="0.2" height="55.2"/>
	<rect x="132.7" y="112.3" clip-path="url(#SVGID_2_)" fill="#4F4C4D" width="0.2" height="55.2"/>
	<rect x="132.9" y="112.3" clip-path="url(#SVGID_2_)" fill="#4E4B4C" width="0.2" height="55.2"/>
	<rect x="133.2" y="112.3" clip-path="url(#SVGID_2_)" fill="#4D4A4B" width="0.2" height="55.2"/>
	<rect x="133.4" y="112.3" clip-path="url(#SVGID_2_)" fill="#4C494A" width="0.2" height="55.2"/>
	<rect x="133.7" y="112.3" clip-path="url(#SVGID_2_)" fill="#4B4849" width="0.2" height="55.2"/>
	<rect x="133.9" y="112.3" clip-path="url(#SVGID_2_)" fill="#4A4748" width="0.2" height="55.2"/>
	<rect x="134.2" y="112.3" clip-path="url(#SVGID_2_)" fill="#494647" width="0.2" height="55.2"/>
	<rect x="134.4" y="112.3" clip-path="url(#SVGID_2_)" fill="#484546" width="0.2" height="55.2"/>
	<rect x="134.6" y="112.3" clip-path="url(#SVGID_2_)" fill="#484445" width="0.2" height="55.2"/>
	<rect x="134.9" y="112.3" clip-path="url(#SVGID_2_)" fill="#474344" width="0.2" height="55.2"/>
	<rect x="135.1" y="112.3" clip-path="url(#SVGID_2_)" fill="#464243" width="0.2" height="55.2"/>
	<rect x="135.4" y="112.3" clip-path="url(#SVGID_2_)" fill="#454142" width="0.2" height="55.2"/>
	<rect x="135.6" y="112.3" clip-path="url(#SVGID_2_)" fill="#444041" width="0.2" height="55.2"/>
	<rect x="135.9" y="112.3" clip-path="url(#SVGID_2_)" fill="#433F40" width="0.2" height="55.2"/>
	<rect x="136.1" y="112.3" clip-path="url(#SVGID_2_)" fill="#423E3F" width="0.2" height="55.2"/>
	<rect x="136.4" y="112.3" clip-path="url(#SVGID_2_)" fill="#413D3E" width="0.2" height="55.2"/>
	<rect x="136.6" y="112.3" clip-path="url(#SVGID_2_)" fill="#403C3D" width="0.2" height="55.2"/>
	<rect x="136.9" y="112.3" clip-path="url(#SVGID_2_)" fill="#3F3B3C" width="0.2" height="55.2"/>
	<rect x="137.1" y="112.3" clip-path="url(#SVGID_2_)" fill="#3E3A3B" width="0.2" height="55.2"/>
	<rect x="137.4" y="112.3" clip-path="url(#SVGID_2_)" fill="#3D393A" width="0.2" height="55.2"/>
	<rect x="137.6" y="112.3" clip-path="url(#SVGID_2_)" fill="#3C3839" width="0.2" height="55.2"/>
	<rect x="137.8" y="112.3" clip-path="url(#SVGID_2_)" fill="#3B3738" width="0.2" height="55.2"/>
	<rect x="138.1" y="112.3" clip-path="url(#SVGID_2_)" fill="#3A3637" width="0.2" height="55.2"/>
	<rect x="138.3" y="112.3" clip-path="url(#SVGID_2_)" fill="#393536" width="0.2" height="55.2"/>
	<rect x="138.6" y="112.3" clip-path="url(#SVGID_2_)" fill="#383435" width="0.2" height="55.2"/>
	<rect x="138.8" y="112.3" clip-path="url(#SVGID_2_)" fill="#373334" width="0.2" height="55.2"/>
	<rect x="139.1" y="112.3" clip-path="url(#SVGID_2_)" fill="#363233" width="0.2" height="55.2"/>
	<rect x="139.3" y="112.3" clip-path="url(#SVGID_2_)" fill="#353132" width="0.2" height="55.2"/>
	<rect x="139.6" y="112.3" clip-path="url(#SVGID_2_)" fill="#343031" width="0.2" height="55.2"/>
	<rect x="139.8" y="112.3" clip-path="url(#SVGID_2_)" fill="#332F30" width="0.2" height="55.2"/>
	<rect x="140.1" y="112.3" clip-path="url(#SVGID_2_)" fill="#322E2F" width="0.2" height="55.2"/>
	<rect x="140.3" y="112.3" clip-path="url(#SVGID_2_)" fill="#312D2E" width="0.2" height="55.2"/>
	<rect x="140.6" y="112.3" clip-path="url(#SVGID_2_)" fill="#302C2D" width="0.2" height="55.2"/>
	<rect x="140.8" y="112.3" clip-path="url(#SVGID_2_)" fill="#2F2B2C" width="0.2" height="55.2"/>
	<rect x="141" y="112.3" clip-path="url(#SVGID_2_)" fill="#2E2A2B" width="0.2" height="55.2"/>
	<rect x="141.3" y="112.3" clip-path="url(#SVGID_2_)" fill="#2D292A" width="0.2" height="55.2"/>
	<rect x="141.5" y="112.3" clip-path="url(#SVGID_2_)" fill="#2C2829" width="0.2" height="55.2"/>
	<rect x="141.8" y="112.3" clip-path="url(#SVGID_2_)" fill="#2B2728" width="0.2" height="55.2"/>
	<rect x="142" y="112.3" clip-path="url(#SVGID_2_)" fill="#2A2627" width="0.2" height="55.2"/>
	<rect x="142.3" y="112.3" clip-path="url(#SVGID_2_)" fill="#292526" width="0.2" height="55.2"/>
	<rect x="142.5" y="112.3" clip-path="url(#SVGID_2_)" fill="#282425" width="0.2" height="55.2"/>
	<rect x="142.8" y="112.3" clip-path="url(#SVGID_2_)" fill="#272324" width="0.2" height="55.2"/>
	<rect x="143" y="112.3" clip-path="url(#SVGID_2_)" fill="#262223" width="0.2" height="55.2"/>
	<rect x="143.3" y="112.3" clip-path="url(#SVGID_2_)" fill="#252122" width="0.2" height="55.2"/>
	<rect x="143.5" y="112.3" clip-path="url(#SVGID_2_)" fill="#242021" width="0.2" height="55.2"/>
	<rect x="143.8" y="112.3" clip-path="url(#SVGID_2_)" fill="#231F20" width="0.2" height="55.2"/>
	<path clip-path="url(#SVGID_2_)" fill="#231F20" d="M144,167.5v-55.2V167.5z"/>
</g>
<g>
	<g>
		<defs>
			<line id="SVGID_3_" x1="144" y1="167.5" x2="217.5" y2="94"/>
		</defs>
		<clipPath id="SVGID_4_">
			<use xlink:href="#SVGID_3_"  overflow="visible"/>
		</clipPath>
		<path clip-path="url(#SVGID_4_)" fill="#FFFFFF" d="M144,94v73.5V94z"/>
		<rect x="144" y="94" clip-path="url(#SVGID_4_)" fill="#FFFFFF" width="0.3" height="73.5"/>
		<rect x="144.3" y="94" clip-path="url(#SVGID_4_)" fill="#FEFEFE" width="0.3" height="73.5"/>
		<rect x="144.7" y="94" clip-path="url(#SVGID_4_)" fill="#FDFDFD" width="0.3" height="73.5"/>
		<rect x="145" y="94" clip-path="url(#SVGID_4_)" fill="#FCFCFC" width="0.3" height="73.5"/>
		<rect x="145.3" y="94" clip-path="url(#SVGID_4_)" fill="#FBFBFB" width="0.3" height="73.5"/>
		<rect x="145.6" y="94" clip-path="url(#SVGID_4_)" fill="#FAFAFA" width="0.3" height="73.5"/>
		<rect x="146" y="94" clip-path="url(#SVGID_4_)" fill="#F9F9F9" width="0.3" height="73.5"/>
		<rect x="146.3" y="94" clip-path="url(#SVGID_4_)" fill="#F8F8F8" width="0.3" height="73.5"/>
		<rect x="146.6" y="94" clip-path="url(#SVGID_4_)" fill="#F7F7F7" width="0.3" height="73.5"/>
		<rect x="147" y="94" clip-path="url(#SVGID_4_)" fill="#F6F6F6" width="0.3" height="73.5"/>
		<rect x="147.3" y="94" clip-path="url(#SVGID_4_)" fill="#F5F5F5" width="0.3" height="73.5"/>
		<rect x="147.6" y="94" clip-path="url(#SVGID_4_)" fill="#F4F4F4" width="0.3" height="73.5"/>
		<rect x="147.9" y="94" clip-path="url(#SVGID_4_)" fill="#F3F3F3" width="0.3" height="73.5"/>
		<rect x="148.3" y="94" clip-path="url(#SVGID_4_)" fill="#F2F2F2" width="0.3" height="73.5"/>
		<rect x="148.6" y="94" clip-path="url(#SVGID_4_)" fill="#F1F1F1" width="0.3" height="73.5"/>
		<rect x="148.9" y="94" clip-path="url(#SVGID_4_)" fill="#F0F0F0" width="0.3" height="73.5"/>
		<rect x="149.3" y="94" clip-path="url(#SVGID_4_)" fill="#EFEFEF" width="0.3" height="73.5"/>
		<rect x="149.6" y="94" clip-path="url(#SVGID_4_)" fill="#EEEEEE" width="0.3" height="73.5"/>
		<rect x="149.9" y="94" clip-path="url(#SVGID_4_)" fill="#EDEDED" width="0.3" height="73.5"/>
		<rect x="150.2" y="94" clip-path="url(#SVGID_4_)" fill="#ECECEC" width="0.3" height="73.5"/>
		<rect x="150.6" y="94" clip-path="url(#SVGID_4_)" fill="#EBEBEB" width="0.3" height="73.5"/>
		<rect x="150.9" y="94" clip-path="url(#SVGID_4_)" fill="#EAEAEA" width="0.3" height="73.5"/>
		<rect x="151.2" y="94" clip-path="url(#SVGID_4_)" fill="#E9E9E9" width="0.3" height="73.5"/>
		<rect x="151.6" y="94" clip-path="url(#SVGID_4_)" fill="#E8E8E8" width="0.3" height="73.5"/>
		<rect x="151.9" y="94" clip-path="url(#SVGID_4_)" fill="#E7E7E7" width="0.3" height="73.5"/>
		<rect x="152.2" y="94" clip-path="url(#SVGID_4_)" fill="#E6E6E6" width="0.3" height="73.5"/>
		<rect x="152.5" y="94" clip-path="url(#SVGID_4_)" fill="#E5E5E5" width="0.3" height="73.5"/>
		<rect x="152.9" y="94" clip-path="url(#SVGID_4_)" fill="#E4E4E4" width="0.3" height="73.5"/>
		<rect x="153.2" y="94" clip-path="url(#SVGID_4_)" fill="#E3E3E3" width="0.3" height="73.5"/>
		<rect x="153.5" y="94" clip-path="url(#SVGID_4_)" fill="#E2E2E2" width="0.3" height="73.5"/>
		<rect x="153.8" y="94" clip-path="url(#SVGID_4_)" fill="#E1E1E1" width="0.3" height="73.5"/>
		<rect x="154.2" y="94" clip-path="url(#SVGID_4_)" fill="#E0E0E0" width="0.3" height="73.5"/>
		<rect x="154.5" y="94" clip-path="url(#SVGID_4_)" fill="#DFDFDF" width="0.3" height="73.5"/>
		<rect x="154.8" y="94" clip-path="url(#SVGID_4_)" fill="#DEDEDE" width="0.3" height="73.5"/>
		<rect x="155.2" y="94" clip-path="url(#SVGID_4_)" fill="#DDDDDD" width="0.3" height="73.5"/>
		<rect x="155.5" y="94" clip-path="url(#SVGID_4_)" fill="#DCDCDC" width="0.3" height="73.5"/>
		<rect x="155.8" y="94" clip-path="url(#SVGID_4_)" fill="#DBDBDB" width="0.3" height="73.5"/>
		<rect x="156.1" y="94" clip-path="url(#SVGID_4_)" fill="#DADADA" width="0.3" height="73.5"/>
		<rect x="156.5" y="94" clip-path="url(#SVGID_4_)" fill="#DAD9D9" width="0.3" height="73.5"/>
		<rect x="156.8" y="94" clip-path="url(#SVGID_4_)" fill="#D9D8D8" width="0.3" height="73.5"/>
		<rect x="157.1" y="94" clip-path="url(#SVGID_4_)" fill="#D8D7D7" width="0.3" height="73.5"/>
		<rect x="157.5" y="94" clip-path="url(#SVGID_4_)" fill="#D7D6D6" width="0.3" height="73.5"/>
		<rect x="157.8" y="94" clip-path="url(#SVGID_4_)" fill="#D6D5D5" width="0.3" height="73.5"/>
		<rect x="158.1" y="94" clip-path="url(#SVGID_4_)" fill="#D5D4D4" width="0.3" height="73.5"/>
		<rect x="158.4" y="94" clip-path="url(#SVGID_4_)" fill="#D4D3D3" width="0.3" height="73.5"/>
		<rect x="158.8" y="94" clip-path="url(#SVGID_4_)" fill="#D3D2D2" width="0.3" height="73.5"/>
		<rect x="159.1" y="94" clip-path="url(#SVGID_4_)" fill="#D2D1D1" width="0.3" height="73.5"/>
		<rect x="159.4" y="94" clip-path="url(#SVGID_4_)" fill="#D1D0D0" width="0.3" height="73.5"/>
		<rect x="159.8" y="94" clip-path="url(#SVGID_4_)" fill="#D0CFCF" width="0.3" height="73.5"/>
		<rect x="160.1" y="94" clip-path="url(#SVGID_4_)" fill="#CFCECE" width="0.3" height="73.5"/>
		<rect x="160.4" y="94" clip-path="url(#SVGID_4_)" fill="#CECDCD" width="0.3" height="73.5"/>
		<rect x="160.7" y="94" clip-path="url(#SVGID_4_)" fill="#CDCCCC" width="0.3" height="73.5"/>
		<rect x="161.1" y="94" clip-path="url(#SVGID_4_)" fill="#CCCBCB" width="0.3" height="73.5"/>
		<rect x="161.4" y="94" clip-path="url(#SVGID_4_)" fill="#CBCACA" width="0.3" height="73.5"/>
		<rect x="161.7" y="94" clip-path="url(#SVGID_4_)" fill="#CAC9C9" width="0.3" height="73.5"/>
		<rect x="162.1" y="94" clip-path="url(#SVGID_4_)" fill="#C9C8C8" width="0.3" height="73.5"/>
		<rect x="162.4" y="94" clip-path="url(#SVGID_4_)" fill="#C8C7C7" width="0.3" height="73.5"/>
		<rect x="162.7" y="94" clip-path="url(#SVGID_4_)" fill="#C7C6C6" width="0.3" height="73.5"/>
		<rect x="163" y="94" clip-path="url(#SVGID_4_)" fill="#C6C5C5" width="0.3" height="73.5"/>
		<rect x="163.4" y="94" clip-path="url(#SVGID_4_)" fill="#C5C4C4" width="0.3" height="73.5"/>
		<rect x="163.7" y="94" clip-path="url(#SVGID_4_)" fill="#C4C3C3" width="0.3" height="73.5"/>
		<rect x="164" y="94" clip-path="url(#SVGID_4_)" fill="#C3C2C2" width="0.3" height="73.5"/>
		<rect x="164.4" y="94" clip-path="url(#SVGID_4_)" fill="#C2C1C1" width="0.3" height="73.5"/>
		<rect x="164.7" y="94" clip-path="url(#SVGID_4_)" fill="#C1C0C0" width="0.3" height="73.5"/>
		<rect x="165" y="94" clip-path="url(#SVGID_4_)" fill="#C0BFBF" width="0.3" height="73.5"/>
		<rect x="165.3" y="94" clip-path="url(#SVGID_4_)" fill="#BFBEBE" width="0.3" height="73.5"/>
		<rect x="165.7" y="94" clip-path="url(#SVGID_4_)" fill="#BEBDBD" width="0.3" height="73.5"/>
		<rect x="166" y="94" clip-path="url(#SVGID_4_)" fill="#BDBCBC" width="0.3" height="73.5"/>
		<rect x="166.3" y="94" clip-path="url(#SVGID_4_)" fill="#BCBBBB" width="0.3" height="73.5"/>
		<rect x="166.7" y="94" clip-path="url(#SVGID_4_)" fill="#BBBABA" width="0.3" height="73.5"/>
		<rect x="167" y="94" clip-path="url(#SVGID_4_)" fill="#BAB9B9" width="0.3" height="73.5"/>
		<rect x="167.3" y="94" clip-path="url(#SVGID_4_)" fill="#B9B8B8" width="0.3" height="73.5"/>
		<rect x="167.6" y="94" clip-path="url(#SVGID_4_)" fill="#B8B7B7" width="0.3" height="73.5"/>
		<rect x="168" y="94" clip-path="url(#SVGID_4_)" fill="#B7B6B6" width="0.3" height="73.5"/>
		<rect x="168.3" y="94" clip-path="url(#SVGID_4_)" fill="#B6B5B5" width="0.3" height="73.5"/>
		<rect x="168.6" y="94" clip-path="url(#SVGID_4_)" fill="#B5B4B4" width="0.3" height="73.5"/>
		<rect x="169" y="94" clip-path="url(#SVGID_4_)" fill="#B4B3B3" width="0.3" height="73.5"/>
		<rect x="169.3" y="94" clip-path="url(#SVGID_4_)" fill="#B3B2B2" width="0.3" height="73.5"/>
		<rect x="169.6" y="94" clip-path="url(#SVGID_4_)" fill="#B2B1B1" width="0.3" height="73.5"/>
		<rect x="169.9" y="94" clip-path="url(#SVGID_4_)" fill="#B1B0B0" width="0.3" height="73.5"/>
		<rect x="170.3" y="94" clip-path="url(#SVGID_4_)" fill="#B0AFAF" width="0.3" height="73.5"/>
		<rect x="170.6" y="94" clip-path="url(#SVGID_4_)" fill="#AFAEAE" width="0.3" height="73.5"/>
		<rect x="170.9" y="94" clip-path="url(#SVGID_4_)" fill="#AEADAD" width="0.3" height="73.5"/>
		<rect x="171.2" y="94" clip-path="url(#SVGID_4_)" fill="#ADACAC" width="0.3" height="73.5"/>
		<rect x="171.6" y="94" clip-path="url(#SVGID_4_)" fill="#ACABAB" width="0.3" height="73.5"/>
		<rect x="171.9" y="94" clip-path="url(#SVGID_4_)" fill="#ABAAAA" width="0.3" height="73.5"/>
		<rect x="172.2" y="94" clip-path="url(#SVGID_4_)" fill="#AAA9A9" width="0.3" height="73.5"/>
		<rect x="172.6" y="94" clip-path="url(#SVGID_4_)" fill="#A9A8A8" width="0.3" height="73.5"/>
		<rect x="172.9" y="94" clip-path="url(#SVGID_4_)" fill="#A8A7A7" width="0.3" height="73.5"/>
		<rect x="173.2" y="94" clip-path="url(#SVGID_4_)" fill="#A7A6A6" width="0.3" height="73.5"/>
		<rect x="173.5" y="94" clip-path="url(#SVGID_4_)" fill="#A6A5A5" width="0.3" height="73.5"/>
		<rect x="173.9" y="94" clip-path="url(#SVGID_4_)" fill="#A5A4A4" width="0.3" height="73.5"/>
		<rect x="174.2" y="94" clip-path="url(#SVGID_4_)" fill="#A4A3A3" width="0.3" height="73.5"/>
		<rect x="174.5" y="94" clip-path="url(#SVGID_4_)" fill="#A3A2A2" width="0.3" height="73.5"/>
		<rect x="174.9" y="94" clip-path="url(#SVGID_4_)" fill="#A2A1A1" width="0.3" height="73.5"/>
		<rect x="175.2" y="94" clip-path="url(#SVGID_4_)" fill="#A1A0A0" width="0.3" height="73.5"/>
		<rect x="175.5" y="94" clip-path="url(#SVGID_4_)" fill="#A09F9F" width="0.3" height="73.5"/>
		<rect x="175.8" y="94" clip-path="url(#SVGID_4_)" fill="#9F9E9E" width="0.3" height="73.5"/>
		<rect x="176.2" y="94" clip-path="url(#SVGID_4_)" fill="#9E9D9D" width="0.3" height="73.5"/>
		<rect x="176.5" y="94" clip-path="url(#SVGID_4_)" fill="#9D9C9C" width="0.3" height="73.5"/>
		<rect x="176.8" y="94" clip-path="url(#SVGID_4_)" fill="#9C9B9B" width="0.3" height="73.5"/>
		<rect x="177.2" y="94" clip-path="url(#SVGID_4_)" fill="#9B9A9A" width="0.3" height="73.5"/>
		<rect x="177.5" y="94" clip-path="url(#SVGID_4_)" fill="#9A9999" width="0.3" height="73.5"/>
		<rect x="177.8" y="94" clip-path="url(#SVGID_4_)" fill="#999898" width="0.3" height="73.5"/>
		<rect x="178.1" y="94" clip-path="url(#SVGID_4_)" fill="#989797" width="0.3" height="73.5"/>
		<rect x="178.5" y="94" clip-path="url(#SVGID_4_)" fill="#979696" width="0.3" height="73.5"/>
		<rect x="178.8" y="94" clip-path="url(#SVGID_4_)" fill="#969595" width="0.3" height="73.5"/>
		<rect x="179.1" y="94" clip-path="url(#SVGID_4_)" fill="#959494" width="0.3" height="73.5"/>
		<rect x="179.5" y="94" clip-path="url(#SVGID_4_)" fill="#949393" width="0.3" height="73.5"/>
		<rect x="179.8" y="94" clip-path="url(#SVGID_4_)" fill="#939292" width="0.3" height="73.5"/>
		<rect x="180.1" y="94" clip-path="url(#SVGID_4_)" fill="#929191" width="0.3" height="73.5"/>
		<rect x="180.4" y="94" clip-path="url(#SVGID_4_)" fill="#919090" width="0.3" height="73.5"/>
		<rect x="180.8" y="94" clip-path="url(#SVGID_4_)" fill="#918E8F" width="0.3" height="73.5"/>
		<rect x="181.1" y="94" clip-path="url(#SVGID_4_)" fill="#908D8E" width="0.3" height="73.5"/>
		<rect x="181.4" y="94" clip-path="url(#SVGID_4_)" fill="#8F8C8D" width="0.3" height="73.5"/>
		<rect x="181.8" y="94" clip-path="url(#SVGID_4_)" fill="#8E8B8C" width="0.3" height="73.5"/>
		<rect x="182.1" y="94" clip-path="url(#SVGID_4_)" fill="#8D8A8B" width="0.3" height="73.5"/>
		<rect x="182.4" y="94" clip-path="url(#SVGID_4_)" fill="#8C898A" width="0.3" height="73.5"/>
		<rect x="182.7" y="94" clip-path="url(#SVGID_4_)" fill="#8B8889" width="0.3" height="73.5"/>
		<rect x="183.1" y="94" clip-path="url(#SVGID_4_)" fill="#8A8788" width="0.3" height="73.5"/>
		<rect x="183.4" y="94" clip-path="url(#SVGID_4_)" fill="#898687" width="0.3" height="73.5"/>
		<rect x="183.7" y="94" clip-path="url(#SVGID_4_)" fill="#888586" width="0.3" height="73.5"/>
		<rect x="184.1" y="94" clip-path="url(#SVGID_4_)" fill="#878485" width="0.3" height="73.5"/>
		<rect x="184.4" y="94" clip-path="url(#SVGID_4_)" fill="#868384" width="0.3" height="73.5"/>
		<rect x="184.7" y="94" clip-path="url(#SVGID_4_)" fill="#858283" width="0.3" height="73.5"/>
		<rect x="185" y="94" clip-path="url(#SVGID_4_)" fill="#848182" width="0.3" height="73.5"/>
		<rect x="185.4" y="94" clip-path="url(#SVGID_4_)" fill="#838081" width="0.3" height="73.5"/>
		<rect x="185.7" y="94" clip-path="url(#SVGID_4_)" fill="#827F80" width="0.3" height="73.5"/>
		<rect x="186" y="94" clip-path="url(#SVGID_4_)" fill="#817E7F" width="0.3" height="73.5"/>
		<rect x="186.4" y="94" clip-path="url(#SVGID_4_)" fill="#807D7E" width="0.3" height="73.5"/>
		<rect x="186.7" y="94" clip-path="url(#SVGID_4_)" fill="#7F7C7D" width="0.3" height="73.5"/>
		<rect x="187" y="94" clip-path="url(#SVGID_4_)" fill="#7E7B7C" width="0.3" height="73.5"/>
		<rect x="187.3" y="94" clip-path="url(#SVGID_4_)" fill="#7D7A7B" width="0.3" height="73.5"/>
		<rect x="187.7" y="94" clip-path="url(#SVGID_4_)" fill="#7C797A" width="0.3" height="73.5"/>
		<rect x="188" y="94" clip-path="url(#SVGID_4_)" fill="#7B7879" width="0.3" height="73.5"/>
		<rect x="188.3" y="94" clip-path="url(#SVGID_4_)" fill="#7A7778" width="0.3" height="73.5"/>
		<rect x="188.6" y="94" clip-path="url(#SVGID_4_)" fill="#797677" width="0.3" height="73.5"/>
		<rect x="189" y="94" clip-path="url(#SVGID_4_)" fill="#787576" width="0.3" height="73.5"/>
		<rect x="189.3" y="94" clip-path="url(#SVGID_4_)" fill="#777475" width="0.3" height="73.5"/>
		<rect x="189.6" y="94" clip-path="url(#SVGID_4_)" fill="#767374" width="0.3" height="73.5"/>
		<rect x="190" y="94" clip-path="url(#SVGID_4_)" fill="#757273" width="0.3" height="73.5"/>
		<rect x="190.3" y="94" clip-path="url(#SVGID_4_)" fill="#747172" width="0.3" height="73.5"/>
		<rect x="190.6" y="94" clip-path="url(#SVGID_4_)" fill="#737071" width="0.3" height="73.5"/>
		<rect x="190.9" y="94" clip-path="url(#SVGID_4_)" fill="#726F70" width="0.3" height="73.5"/>
		<rect x="191.3" y="94" clip-path="url(#SVGID_4_)" fill="#716E6F" width="0.3" height="73.5"/>
		<rect x="191.6" y="94" clip-path="url(#SVGID_4_)" fill="#706D6E" width="0.3" height="73.5"/>
		<rect x="191.9" y="94" clip-path="url(#SVGID_4_)" fill="#6F6C6D" width="0.3" height="73.5"/>
		<rect x="192.3" y="94" clip-path="url(#SVGID_4_)" fill="#6E6B6C" width="0.3" height="73.5"/>
		<rect x="192.6" y="94" clip-path="url(#SVGID_4_)" fill="#6D6A6B" width="0.3" height="73.5"/>
		<rect x="192.9" y="94" clip-path="url(#SVGID_4_)" fill="#6C696A" width="0.3" height="73.5"/>
		<rect x="193.2" y="94" clip-path="url(#SVGID_4_)" fill="#6B6869" width="0.3" height="73.5"/>
		<rect x="193.6" y="94" clip-path="url(#SVGID_4_)" fill="#6A6768" width="0.3" height="73.5"/>
		<rect x="193.9" y="94" clip-path="url(#SVGID_4_)" fill="#696667" width="0.3" height="73.5"/>
		<rect x="194.2" y="94" clip-path="url(#SVGID_4_)" fill="#686566" width="0.3" height="73.5"/>
		<rect x="194.6" y="94" clip-path="url(#SVGID_4_)" fill="#676465" width="0.3" height="73.5"/>
		<rect x="194.9" y="94" clip-path="url(#SVGID_4_)" fill="#666364" width="0.3" height="73.5"/>
		<rect x="195.2" y="94" clip-path="url(#SVGID_4_)" fill="#656263" width="0.3" height="73.5"/>
		<rect x="195.5" y="94" clip-path="url(#SVGID_4_)" fill="#646162" width="0.3" height="73.5"/>
		<rect x="195.9" y="94" clip-path="url(#SVGID_4_)" fill="#636061" width="0.3" height="73.5"/>
		<rect x="196.2" y="94" clip-path="url(#SVGID_4_)" fill="#625F60" width="0.3" height="73.5"/>
		<rect x="196.5" y="94" clip-path="url(#SVGID_4_)" fill="#615E5F" width="0.3" height="73.5"/>
		<rect x="196.9" y="94" clip-path="url(#SVGID_4_)" fill="#605D5E" width="0.3" height="73.5"/>
		<rect x="197.2" y="94" clip-path="url(#SVGID_4_)" fill="#5F5C5D" width="0.3" height="73.5"/>
		<rect x="197.5" y="94" clip-path="url(#SVGID_4_)" fill="#5E5B5C" width="0.3" height="73.5"/>
		<rect x="197.8" y="94" clip-path="url(#SVGID_4_)" fill="#5D5A5B" width="0.3" height="73.5"/>
		<rect x="198.2" y="94" clip-path="url(#SVGID_4_)" fill="#5C595A" width="0.3" height="73.5"/>
		<rect x="198.5" y="94" clip-path="url(#SVGID_4_)" fill="#5B5859" width="0.3" height="73.5"/>
		<rect x="198.8" y="94" clip-path="url(#SVGID_4_)" fill="#5A5758" width="0.3" height="73.5"/>
		<rect x="199.2" y="94" clip-path="url(#SVGID_4_)" fill="#595657" width="0.3" height="73.5"/>
		<rect x="199.5" y="94" clip-path="url(#SVGID_4_)" fill="#585556" width="0.3" height="73.5"/>
		<rect x="199.8" y="94" clip-path="url(#SVGID_4_)" fill="#575455" width="0.3" height="73.5"/>
		<rect x="200.1" y="94" clip-path="url(#SVGID_4_)" fill="#565354" width="0.3" height="73.5"/>
		<rect x="200.5" y="94" clip-path="url(#SVGID_4_)" fill="#555253" width="0.3" height="73.5"/>
		<rect x="200.8" y="94" clip-path="url(#SVGID_4_)" fill="#545152" width="0.3" height="73.5"/>
		<rect x="201.1" y="94" clip-path="url(#SVGID_4_)" fill="#535051" width="0.3" height="73.5"/>
		<rect x="201.5" y="94" clip-path="url(#SVGID_4_)" fill="#524F50" width="0.3" height="73.5"/>
		<rect x="201.8" y="94" clip-path="url(#SVGID_4_)" fill="#514E4F" width="0.3" height="73.5"/>
		<rect x="202.1" y="94" clip-path="url(#SVGID_4_)" fill="#504D4E" width="0.3" height="73.5"/>
		<rect x="202.4" y="94" clip-path="url(#SVGID_4_)" fill="#4F4C4D" width="0.3" height="73.5"/>
		<rect x="202.8" y="94" clip-path="url(#SVGID_4_)" fill="#4E4B4C" width="0.3" height="73.5"/>
		<rect x="203.1" y="94" clip-path="url(#SVGID_4_)" fill="#4D4A4B" width="0.3" height="73.5"/>
		<rect x="203.4" y="94" clip-path="url(#SVGID_4_)" fill="#4C494A" width="0.3" height="73.5"/>
		<rect x="203.8" y="94" clip-path="url(#SVGID_4_)" fill="#4B4849" width="0.3" height="73.5"/>
		<rect x="204.1" y="94" clip-path="url(#SVGID_4_)" fill="#4A4748" width="0.3" height="73.5"/>
		<rect x="204.4" y="94" clip-path="url(#SVGID_4_)" fill="#494647" width="0.3" height="73.5"/>
		<rect x="204.7" y="94" clip-path="url(#SVGID_4_)" fill="#484546" width="0.3" height="73.5"/>
		<rect x="205.1" y="94" clip-path="url(#SVGID_4_)" fill="#484445" width="0.3" height="73.5"/>
		<rect x="205.4" y="94" clip-path="url(#SVGID_4_)" fill="#474344" width="0.3" height="73.5"/>
		<rect x="205.7" y="94" clip-path="url(#SVGID_4_)" fill="#464243" width="0.3" height="73.5"/>
		<rect x="206" y="94" clip-path="url(#SVGID_4_)" fill="#454142" width="0.3" height="73.5"/>
		<rect x="206.4" y="94" clip-path="url(#SVGID_4_)" fill="#444041" width="0.3" height="73.5"/>
		<rect x="206.7" y="94" clip-path="url(#SVGID_4_)" fill="#433F40" width="0.3" height="73.5"/>
		<rect x="207" y="94" clip-path="url(#SVGID_4_)" fill="#423E3F" width="0.3" height="73.5"/>
		<rect x="207.4" y="94" clip-path="url(#SVGID_4_)" fill="#413D3E" width="0.3" height="73.5"/>
		<rect x="207.7" y="94" clip-path="url(#SVGID_4_)" fill="#403C3D" width="0.3" height="73.5"/>
		<rect x="208" y="94" clip-path="url(#SVGID_4_)" fill="#3F3B3C" width="0.3" height="73.5"/>
		<rect x="208.3" y="94" clip-path="url(#SVGID_4_)" fill="#3E3A3B" width="0.3" height="73.5"/>
		<rect x="208.7" y="94" clip-path="url(#SVGID_4_)" fill="#3D393A" width="0.3" height="73.5"/>
		<rect x="209" y="94" clip-path="url(#SVGID_4_)" fill="#3C3839" width="0.3" height="73.5"/>
		<rect x="209.3" y="94" clip-path="url(#SVGID_4_)" fill="#3B3738" width="0.3" height="73.5"/>
		<rect x="209.7" y="94" clip-path="url(#SVGID_4_)" fill="#3A3637" width="0.3" height="73.5"/>
		<rect x="210" y="94" clip-path="url(#SVGID_4_)" fill="#393536" width="0.3" height="73.5"/>
		<rect x="210.3" y="94" clip-path="url(#SVGID_4_)" fill="#383435" width="0.3" height="73.5"/>
		<rect x="210.6" y="94" clip-path="url(#SVGID_4_)" fill="#373334" width="0.3" height="73.5"/>
		<rect x="211" y="94" clip-path="url(#SVGID_4_)" fill="#363233" width="0.3" height="73.5"/>
		<rect x="211.3" y="94" clip-path="url(#SVGID_4_)" fill="#353132" width="0.3" height="73.5"/>
		<rect x="211.6" y="94" clip-path="url(#SVGID_4_)" fill="#343031" width="0.3" height="73.5"/>
		<rect x="212" y="94" clip-path="url(#SVGID_4_)" fill="#332F30" width="0.3" height="73.5"/>
		<rect x="212.3" y="94" clip-path="url(#SVGID_4_)" fill="#322E2F" width="0.3" height="73.5"/>
		<rect x="212.6" y="94" clip-path="url(#SVGID_4_)" fill="#312D2E" width="0.3" height="73.5"/>
		<rect x="212.9" y="94" clip-path="url(#SVGID_4_)" fill="#302C2D" width="0.3" height="73.5"/>
		<rect x="213.3" y="94" clip-path="url(#SVGID_4_)" fill="#2F2B2C" width="0.3" height="73.5"/>
		<rect x="213.6" y="94" clip-path="url(#SVGID_4_)" fill="#2E2A2B" width="0.3" height="73.5"/>
		<rect x="213.9" y="94" clip-path="url(#SVGID_4_)" fill="#2D292A" width="0.3" height="73.5"/>
		<rect x="214.3" y="94" clip-path="url(#SVGID_4_)" fill="#2C2829" width="0.3" height="73.5"/>
		<rect x="214.6" y="94" clip-path="url(#SVGID_4_)" fill="#2B2728" width="0.3" height="73.5"/>
		<rect x="214.9" y="94" clip-path="url(#SVGID_4_)" fill="#2A2627" width="0.3" height="73.5"/>
		<rect x="215.2" y="94" clip-path="url(#SVGID_4_)" fill="#292526" width="0.3" height="73.5"/>
		<rect x="215.6" y="94" clip-path="url(#SVGID_4_)" fill="#282425" width="0.3" height="73.5"/>
		<rect x="215.9" y="94" clip-path="url(#SVGID_4_)" fill="#272324" width="0.3" height="73.5"/>
		<rect x="216.2" y="94" clip-path="url(#SVGID_4_)" fill="#262223" width="0.3" height="73.5"/>
		<rect x="216.6" y="94" clip-path="url(#SVGID_4_)" fill="#252122" width="0.3" height="73.5"/>
		<rect x="216.9" y="94" clip-path="url(#SVGID_4_)" fill="#242021" width="0.3" height="73.5"/>
		<rect x="217.2" y="94" clip-path="url(#SVGID_4_)" fill="#231F20" width="0.3" height="73.5"/>
		<path clip-path="url(#SVGID_4_)" fill="#231F20" d="M217.5,167.5V94V167.5z"/>
	</g>
	<path fill="#FFFFFF" d="M144,173.5c-1.5,0-3.1-0.6-4.2-1.8c-2.3-2.3-2.3-6.1,0-8.5l73.5-73.5c2.3-2.3,6.1-2.3,8.5,0
		c2.3,2.3,2.3,6.1,0,8.5l-73.5,73.5C147.1,172.9,145.5,173.5,144,173.5z"/>
</g>
<path fill="#FF0000" d="M144,157.5c-0.5,0-0.9,0-1.4,0.1l-49.5-49.5c-2.3-2.3-6.1-2.3-8.5,0c-2.3,2.3-2.3,6.1,0,8.5l49.5,49.5
	c-0.1,0.5-0.1,0.9-0.1,1.4c0,5.5,4.5,10,10,10s10-4.5,10-10C154,162,149.5,157.5,144,157.5z"/>
<g>
	<g>
		<g>
			<path fill="#AAAAAA" d="M218.9,16.4v1.9h1.9v28.4h-1.9v1.9h-9.5v-1.9h-1.9V20.1v-1.9h1.9v-1.9H218.9z M217.1,44.8V20.2h-5.7v24.6
				H217.1z"/>
			<path fill="#AAAAAA" d="M235.9,16.4v1.9h1.9v28.4h-1.9v1.9h-9.5v-1.9h-1.9V41h3.8v3.8h5.7v-9.5h-7.6v-1.9h-1.9V18.2h1.9v-1.9
				H235.9z M228.3,31.5h5.7V20.1h-5.7V31.5z"/>
		</g>
	</g>
	<g>
		<g>
			<path fill="#AAAAAA" d="M18.6,83.7h7.6v32.2h-3.8V87.5h-3.8V83.7z"/>
			<path fill="#AAAAAA" d="M45,83.7v1.9h1.9V114H45v1.9h-9.5V114h-1.9V87.5v-1.9h1.9v-1.9H45z M43.2,112.1V87.5h-5.7v24.6H43.2z"/>
		</g>
	</g>
	<path fill="#AAAAAA" d="M12.3,89.2L0,82.1v4.6l10.3,5.9c0.3,0.2,0.7,0.3,1,0.3c0.7,0,1.4-0.4,1.7-1C13.5,91,13.2,89.7,12.3,89.2z"
		/>
	<path fill="#AAAAAA" d="M238.3,0l-5.9,10.3c-0.6,1-0.2,2.2,0.7,2.7c0.3,0.2,0.7,0.3,1,0.3c0.7,0,1.4-0.4,1.7-1L242.9,0H238.3z"/>
</g>
<g>
</g>
<g>
</g>
<g>
</g>
<g>
</g>
<g>
</g>
<g>
</g>
<g>
</g>
<g>
</g>
<g>
</g>
<g>
</g>
<g>
</g>
<g>
</g>
<g>
</g>
<g>
</g>
<g>
</g>
</svg>
