<?xml version="1.0" encoding="utf-8"?>
<!-- Generator: Adobe Illustrator 18.0.0, SVG Export Plug-In . SVG Version: 6.00 Build 0)  -->
<!DOCTYPE svg PUBLIC "-//W3C//DTD SVG 1.1 Basic//EN" "http://www.w3.org/Graphics/SVG/1.1/DTD/svg11-basic.dtd">
<svg version="1.1" baseProfile="basic" id="Layer_1"
	 xmlns="http://www.w3.org/2000/svg" xmlns:xlink="http://www.w3.org/1999/xlink" x="0px" y="0px" viewBox="0 0 355 355"
	 xml:space="preserve">
<g>
	<rect x="33.6" y="11.2" width="287.7" height="335.7"/>
</g>
<g id="XMLID_1447_">
	<circle cx="177.5" cy="177.5" r="177.5"/>
</g>
<g>
	<path fill="#AAAAAA" d="M0.8,177.7"/>
</g>
<g>
	
		<text id="XMLID_861_" transform="matrix(1 0 0 1 247.205 59.4211)" fill="#AAAAAA" font-family="'Nupe-CondensedRegular'" font-size="45.9999">1</text>
	
		<text id="XMLID_864_" transform="matrix(1 0 0 1 47.9049 126.7542)" fill="#AAAAAA" font-family="'Nupe-CondensedRegular'" font-size="45.9999">51</text>
	<path fill="#AAAAAA" d="M271.2,11.2l-5.8,10c-0.6,1-0.2,2.2,0.7,2.7c0.3,0.2,0.7,0.3,1,0.3c0.7,0,1.4-0.4,1.7-1l6.9-12H271.2z"/>
	<path fill="#AAAAAA" d="M45.3,100l-11.6-6.7v4.6l9.6,5.6c0.3,0.2,0.7,0.3,1,0.3c0.7,0,1.4-0.4,1.7-1
		C46.5,101.8,46.2,100.6,45.3,100z"/>
</g>
<text id="XMLID_311_" transform="matrix(1 0 0 1 160.5647 133.7009)" fill="#555555" font-family="'Nupe-CondensedRegular'" font-size="46">31</text>
<g id="XMLID_361_">
	<g id="XMLID_921_">
		<g id="XMLID_923_">
			<path fill="#FF0000" d="M113.3,120.5c0.1,1.5-0.3,3.1-1.3,4.4c-2.1,2.6-5.9,2.9-8.4,0.8l-10.8-8.9c-2.6-2.1-2.9-5.9-0.8-8.4
				c2.1-2.6,5.9-2.9,8.4-0.8l10.8,8.9C112.5,117.5,113.2,119,113.3,120.5z"/>
		</g>
	</g>
	<g id="XMLID_911_">
		<g id="XMLID_917_">
			
				<rect x="109.1" y="117.5" transform="matrix(-0.6358 0.7719 -0.7719 -0.6358 286.6337 119.6763)" fill="#FF5500" width="12" height="20"/>
		</g>
	</g>
	<g id="XMLID_905_">
		<g id="XMLID_909_">
			
				<rect x="124.6" y="130.1" transform="matrix(-0.6358 0.7719 -0.7719 -0.6358 321.9594 128.6248)" fill="#FFAA00" width="12" height="20.3"/>
		</g>
	</g>
	<g id="XMLID_902_">
		<g id="XMLID_903_">
			
				<rect x="140.7" y="142.9" transform="matrix(-0.6358 0.7719 -0.7719 -0.6358 358.4296 137.8651)" fill="#00AA00" width="12" height="21.3"/>
		</g>
	</g>
	<g id="XMLID_364_">
		<g id="XMLID_365_">
			
				<rect x="159" y="155.5" transform="matrix(-0.6358 0.7719 -0.7719 -0.6358 399.951 148.3838)" fill="#0055FF" width="12" height="26.1"/>
		</g>
	</g>
</g>
<g>
	<path fill="#FF0000" d="M177,184.4c-1.5,0-3.1-0.6-4.2-1.8c-2.3-2.3-2.3-6.1,0-8.5l55.2-55.2c2.3-2.3,6.1-2.3,8.5,0
		c2.3,2.3,2.3,6.1,0,8.5l-55.2,55.2C180.1,183.8,178.5,184.4,177,184.4z"/>
</g>
<g>
	<path fill="#FFFFFF" d="M177.5,184.3c-1.5,0.1-3.1-0.3-4.4-1.3l-80.3-66.1c-2.6-2.1-2.9-5.9-0.8-8.4c2.1-2.6,5.9-2.9,8.4-0.8
		l80.3,66.1c2.6,2.1,2.9,5.9,0.8,8.4C180.5,183.4,179,184.2,177.5,184.3z"/>
</g>
<g id="XMLID_362_">
	<g id="XMLID_363_">
		<circle fill="#AA00FF" cx="177" cy="178.4" r="10"/>
	</g>
</g>
<text id="XMLID_1_" transform="matrix(1 0 0 1 128.7151 252.3272)" fill="#555555" font-family="'Nupe-CondensedRegular'" font-size="46">y8.5k</text>
<text id="XMLID_2_" transform="matrix(1 0 0 1 74.0895 195.815)" fill="#555555" font-family="'Nupe-CondensedRegular'" font-size="46">z w</text>
<g>
	
		<text id="XMLID_68_" transform="matrix(1 0 0 1 37.7881 119.4569)" fill="#AAAAAA" font-family="'Nupe-CondensedRegular'" font-size="45.9995">51</text>
	
		<text id="XMLID_80_" transform="matrix(1 0 0 1 242.8799 70.8084)" fill="#AAAAAA" font-family="'Nupe-CondensedRegular'" font-size="45.9995">1</text>
	<path fill="#AAAAAA" d="M263.8,22.4l-4.4,7.6c-0.6,1-0.2,2.2,0.7,2.8c0.3,0.2,0.7,0.3,1,0.3c0.7,0,1.4-0.4,1.8-1l4.4-7.6
		C266.2,23.7,265,23,263.8,22.4z"/>
	<path fill="#AAAAAA" d="M31.5,95.9c0.3,0.2,0.7,0.3,1,0.3c0.7,0,1.4-0.4,1.8-1c0.6-1,0.2-2.2-0.7-2.8l-8.9-5.1
		c-0.7,1.2-1.4,2.3-2,3.5L31.5,95.9z"/>
</g>
<text id="XMLID_5_" transform="matrix(1 0 0 1 196.7277 195.815)" fill="#555555" font-family="'Nupe-CondensedRegular'" font-size="46">b27°</text>
</svg>
