<?xml version="1.0" encoding="iso-8859-1"?>
<!-- Generator: Adobe Illustrator 18.0.0, SVG Export Plug-In . SVG Version: 6.00 Build 0)  -->
<!DOCTYPE svg PUBLIC "-//W3C//DTD SVG 1.1//EN" "http://www.w3.org/Graphics/SVG/1.1/DTD/svg11.dtd">
<svg version="1.1" xmlns="http://www.w3.org/2000/svg" xmlns:xlink="http://www.w3.org/1999/xlink" x="0px" y="0px"
	 viewBox="0 0 288 336" style="enable-background:new 0 0 288 336;" xml:space="preserve">
<g id="Layer_1_1_">
	<g>
		<g>
			<path style="fill:#FF0000;" d="M207.68,109.82c-1.535,0-3.071-0.586-4.242-1.758c-2.344-2.343-2.344-6.142,0-8.484l9.86-9.86
				c2.342-2.344,6.143-2.344,8.484,0c2.344,2.343,2.344,6.142,0,8.484l-9.86,9.86C210.751,109.234,209.215,109.82,207.68,109.82z"/>
		</g>
		<g>
			
				<rect x="194.587" y="100.91" transform="matrix(0.7071 0.7071 -0.7071 0.7071 137.1781 -109.3502)" style="fill:#FF5500;" width="11.999" height="20.008"/>
		</g>
		<g>
			
				<rect x="180.327" y="114.993" transform="matrix(0.7071 0.7071 -0.7071 0.7071 143.0847 -95.0904)" style="fill:#FFAA00;" width="11.999" height="20.361"/>
		</g>
		<g>
			
				<rect x="165.606" y="129.256" transform="matrix(0.7071 0.7071 -0.7071 0.7071 149.1824 -80.3692)" style="fill:#00AA00;" width="11.999" height="21.277"/>
		</g>
		<g>
			
				<rect x="148.846" y="143.591" transform="matrix(0.7071 0.7071 -0.7071 0.7071 156.1248 -63.609)" style="fill:#0055FF;" width="11.999" height="26.128"/>
		</g>
		<g>
			<circle style="fill:#AA00FF;" cx="144" cy="167.5" r="10"/>
		</g>
	</g>
	<rect style="fill:none;" width="288" height="336"/>
</g>
<g id="Layer_1">
</g>
</svg>
