<?xml version="1.0" encoding="utf-8"?>
<!DOCTYPE svg PUBLIC "-//W3C//DTD SVG 1.1//EN" "http://www.w3.org/Graphics/SVG/1.1/DTD/svg11.dtd">
<svg version="1.1" id="Layer_1" xmlns="http://www.w3.org/2000/svg" xmlns:xlink="http://www.w3.org/1999/xlink" x="0px" y="0px"
	 viewBox="0 0 288 336" enable-background="new 0 0 288 336" xml:space="preserve">
<rect x="0" y="0" width="288" height="336"/>
<g>
	<path class="date" fill="#555555" d="M140.3,204.2v1.9h1.9v1.9v9.5h-1.9v3.8h1.9v11.4v1.9h-1.9v1.9h-9.5v-1.9h-1.9v-5.7h3.8v3.8h5.7v-11.4h-5.7
			                    v-3.8h5.7V208h-5.7v3.8h-3.8v-5.7h1.9v-1.9H140.3z"/>
	<path class="date" fill="#555555" d="M147.7,204.2h7.6v32.2h-3.8V208h-3.8V204.2z"/>
</g>
<g>
	<path class="bluetooth" fill="#FF0000" d="M156.7,99.1l-11.4-11.4h-2v15.2l-9.2-9.2l-2.8,2.8l11.2,11.2l-11.2,11.2l2.8,2.8l9.2-9.2v15.2h2l11.4-11.4
		                                        l-8.6-8.6L156.7,99.1z M147.3,95.3l3.8,3.8l-3.8,3.8V95.3z M151,116.2l-3.8,3.8v-7.5L151,116.2z"/>
</g>
<g>
	<path class="minute_hand" fill="#FFFFFF" d="M144,173.5c-1.5,0-3.1-0.6-4.2-1.8c-2.3-2.3-2.3-6.1,0-8.5l73.5-73.5c2.3-2.3,6.1-2.3,8.5,0
		                                          c2.3,2.3,2.3,6.1,0,8.5l-73.5,73.5C147.1,172.9,145.5,173.5,144,173.5z"/>
</g>
<g>
  <path class="hour_hand" fill="#FF0000" d="M144,157.5c-0.5,0-0.9,0-1.4,0.1l-49.5-49.5c-2.3-2.3-6.1-2.3-8.5,0c-2.3,2.3-2.3,6.1,0,8.5l49.5,49.5
	                                       c-0.1,0.5-0.1,0.9-0.1,1.4c0,5.5,4.5,10,10,10s10-4.5,10-10C154,162,149.5,157.5,144,157.5z"/>
</g>
<g>
	<path class="time" fill="#AAAAAA" d="M218.9,16.4v1.9h1.9v28.4h-1.9v1.9h-9.5v-1.9h-1.9V20.1v-1.9h1.9v-1.9H218.9z M217.1,44.8V20.2h-5.7v24.6
				                               H217.1z"/>
	<path class="time" fill="#AAAAAA" d="M235.9,16.4v1.9h1.9v28.4h-1.9v1.9h-9.5v-1.9h-1.9V41h3.8v3.8h5.7v-9.5h-7.6v-1.9h-1.9V18.2h1.9v-1.9
				                               H235.9z M228.3,31.5h5.7V20.1h-5.7V31.5z"/>
	<path class="time" fill="#AAAAAA" d="M18.6,83.7h7.6v32.2h-3.8V87.5h-3.8V83.7z"/>
	<path class="time" fill="#AAAAAA" d="M45,83.7v1.9h1.9V114H45v1.9h-9.5V114h-1.9V87.5v-1.9h1.9v-1.9H45z M43.2,112.1V87.5h-5.7v24.6H43.2z"/>
</g>
<g>
	<path class="tick" fill="#AAAAAA" d="M12.3,89.2L0,82.1v4.6l10.3,5.9c0.3,0.2,0.7,0.3,1,0.3c0.7,0,1.4-0.4,1.7-1C13.5,91,13.2,89.7,12.3,89.2z"/>
	<path class="tick" fill="#AAAAAA" d="M238.3,0l-5.9,10.3c-0.6,1-0.2,2.2,0.7,2.7c0.3,0.2,0.7,0.3,1,0.3c0.7,0,1.4-0.4,1.7-1L242.9,0H238.3z"/>
</g>
</svg>
